<svg width="58" height="64" viewBox="0 0 58 64" fill="none" xmlns="http://www.w3.org/2000/svg">
    <path fill-rule="evenodd" clip-rule="evenodd"
          d="M54.2563 17.7025L52.6781 19.4282C66.1943 37.9802 52.3888 64.0746 28.9891 63.9999C3.25962 63.9751 -9.6869 33.5074 8.49076 15.7434C8.49516 15.739 8.49967 15.7348 8.5042 15.7305C8.50798 15.727 8.51177 15.7234 8.5155 15.7198L6.15445 13.2365L4.93399 14.4038C4.17628 15.1285 2.95877 15.1176 2.21491 14.378C1.4713 13.6388 1.4831 12.4516 2.24132 11.7265L7.50155 6.69562C8.25977 5.9705 9.47715 5.98212 10.2206 6.72137C10.9642 7.46063 10.9524 8.64775 10.1942 9.37288L8.90109 10.6096L11.4112 13.2498C14.7938 10.7242 18.6698 8.97812 22.8055 8.10625V3.75H19.1558C18.0939 3.75 17.233 2.9105 17.233 1.875C17.233 0.8395 18.0939 0 19.1558 0H38.8217C39.8836 0 40.7445 0.8395 40.7445 1.875C40.7445 2.9105 39.8836 3.75 38.8217 3.75H35.1546V8.10262C38.534 8.81287 41.7401 10.1065 44.6459 11.9323L45.9923 10.4696C48.037 8.248 51.5544 8.06262 53.8328 10.0568C56.1113 12.0509 56.3013 15.4809 54.2563 17.7025ZM51.2642 12.8475C50.5639 12.2349 49.4828 12.2919 48.8542 12.9745L47.7459 14.1784C48.3439 14.6749 48.9254 15.1958 49.4868 15.7432C49.7361 15.9864 49.9785 16.2344 50.2176 16.4846L51.3904 15.2022C52.023 14.5149 51.9646 13.4605 51.2642 12.8475ZM31.3091 3.75H26.6511V7.55538C28.1901 7.43438 29.77 7.43388 31.3091 7.55387V3.75ZM3.84569 35.7319C3.84569 49.2513 15.1249 60.25 28.9888 60.25C42.8527 60.25 54.1319 49.2512 54.1319 35.732C52.7558 3.21462 5.22677 3.20513 3.84569 35.7319ZM27.0306 27.873C27.0306 26.8375 27.8915 25.998 28.9534 25.998C30.0153 25.998 30.8762 26.8375 30.8762 27.873V33.8959H32.2988C34.848 33.9941 34.85 37.5468 32.2988 37.6459H28.9534C27.8915 37.6459 27.0306 36.8064 27.0306 35.7709V27.873Z"
          fill="#00A0FF"/>
    <path d="M36.0522 51.3669C34.4102 52.0734 32.6877 52.5224 30.9117 52.7102V50.7816C30.8101 48.2939 27.1668 48.2957 27.0661 50.7816V52.7097C25.3969 52.5329 23.7732 52.1256 22.2194 51.4901C21.2401 51.0895 20.1133 51.5392 19.7026 52.494C19.2919 53.449 19.7529 54.5479 20.7321 54.9484C26.0497 57.1484 32.3305 57.0949 37.6045 54.7977C38.5762 54.3796 39.0163 53.2729 38.5875 52.3254C38.1588 51.3779 37.0235 50.9492 36.0522 51.3669Z"
          fill="white"/>
    <path d="M49.0101 28.4569C48.0244 26.1606 44.6107 27.4026 45.4068 29.7667C45.9116 31.0871 46.2435 32.4567 46.3998 33.8568H43.8913C41.3401 33.956 41.342 37.5087 43.8913 37.6068H46.3992C46.2344 39.0837 45.8748 40.526 45.3224 41.9128C44.9379 42.8782 45.4287 43.9646 46.4186 44.3395C47.3828 44.7121 48.5233 44.2455 48.9071 43.2705C50.7927 38.5827 50.829 33.1701 49.0101 28.4569Z"
          fill="white"/>
    <path d="M22.7527 19.7657C24.1434 19.2487 25.5881 18.9107 27.0662 18.7538V21.007C27.1679 23.4947 30.8112 23.4928 30.9118 21.007V18.7541C32.4545 18.9178 33.96 19.2785 35.4066 19.8343C36.3693 20.2115 37.5117 19.7502 37.9005 18.7772C38.2898 17.8137 37.8043 16.725 36.8163 16.3453C31.9377 14.4518 26.2834 14.4222 21.3829 16.2616C19.0355 17.2403 20.3345 20.559 22.7527 19.7657Z"
          fill="white"/>
    <path d="M13.8737 33.857H11.5784C11.7388 32.421 12.0835 31.0175 12.6102 29.6659C12.9874 28.6979 12.4885 27.6149 11.4959 27.247C10.5032 26.8787 9.39272 27.3656 9.01547 28.3335C7.171 33.0207 7.1678 38.417 9.00624 43.1065C9.38131 44.0846 10.5181 44.5606 11.4854 44.1961C12.4785 43.8294 12.9787 42.747 12.6028 41.7786C12.0803 40.433 11.738 39.036 11.5786 37.607H13.8738C16.4249 37.508 16.423 33.9552 13.8737 33.857Z"
          fill="white"/>
</svg>
