<svg width="64" height="64" viewBox="0 0 64 64" fill="none" xmlns="http://www.w3.org/2000/svg">
    <path d="M62.1194 30.1255H33.8744V1.88066C33.8744 0.845402 33.0351 0.00610035 31.9998 0.00610035C14.8034 -0.348441 -0.350132 14.8025 0.00615908 32.0003C-0.348632 49.1965 14.8022 64.3502 32.0001 63.9939C49.1963 64.3486 64.3501 49.1977 63.9937 31.9998C63.9939 30.9648 63.1546 30.1255 62.1194 30.1255ZM60.1821 33.8746C60.0943 35.2222 59.9121 36.5511 59.6388 37.8544H31.8428L33.3075 33.8746H60.1821ZM56.8788 45.398H29.0663L30.4628 41.6035H58.5771C58.1066 42.9082 57.5391 44.1759 56.8788 45.398ZM51.9721 51.9722C51.5051 52.4392 51.0239 52.8867 50.5308 53.3166H26.1519L27.6865 49.1471H54.448C53.6911 50.1338 52.8662 51.0783 51.9721 51.9722ZM12.0277 12.028C16.9182 7.13754 23.2864 4.26309 30.1253 3.81795V29.4137L5.78817 21.4422C7.19034 17.9597 9.29321 14.7625 12.0277 12.028ZM3.75502 32C3.75502 29.6094 4.05095 27.2643 4.62382 25.0059L29.5694 33.1766L20.5014 57.8146C10.4969 53.4442 3.61931 42.9682 3.75502 32ZM24.021 59.1063L24.7719 57.0657H45.0443C38.7701 60.4 30.8757 61.1574 24.021 59.1063Z"
          fill="#00A0FF"/>
    <path fill-rule="evenodd" clip-rule="evenodd"
          d="M57.8726 24.8293C57.8726 25.8645 57.0333 26.7038 55.9981 26.7038C54.9628 26.7038 54.1235 25.8645 54.1235 24.8292V7.86467C54.2216 5.37938 57.7735 5.37751 57.8726 7.86467V24.8293ZM48.4364 26.7041C49.4717 26.7041 50.311 25.8648 50.311 24.8295V13.6513C50.2119 11.1641 46.66 11.166 46.5619 13.6513V24.8295C46.5619 25.8648 47.4012 26.7041 48.4364 26.7041ZM40.8746 26.7041C41.9098 26.7041 42.7491 25.8648 42.7491 24.8296V17.9052C42.65 15.418 39.0981 15.4199 39 17.9052V24.8296C39 25.8648 39.8393 26.7041 40.8746 26.7041Z"
          fill="white"/>
</svg>
