<svg width="64" height="64" viewBox="0 0 64 64" fill="none" xmlns="http://www.w3.org/2000/svg">
    <path d="M62.1258 9.21957H38.6686C36.3229 4.37312 33.5337 1.55507 33.3328 1.35578C32.9708 0.996589 32.4798 0.8003 31.9682 0.812553C31.4583 0.82468 30.9755 1.0441 30.6309 1.42005C28.4627 3.78613 26.6856 6.40002 25.3255 9.21957H1.87439C0.839309 9.21957 0.000144366 10.0587 0.000144366 11.0938C-0.000105683 21.8752 1.93414e-05 43.1773 0.000144366 53.9747C0.000144366 55.0098 0.839309 55.8489 1.87439 55.8489H15.5493V59.4394H10.934C8.4473 59.5384 8.44917 63.0898 10.934 63.188H53.0662C55.553 63.089 55.551 59.5375 53.0662 59.4394H48.4509V55.8489H62.1257C63.1608 55.8489 63.9999 55.0098 63.9999 53.9747V11.0938C64 10.0587 63.1609 9.21957 62.1258 9.21957ZM32.0159 5.56948C32.7059 6.45791 33.5862 7.70827 34.4593 9.27108C35.0563 10.3398 35.6933 11.6387 36.2684 13.1351H27.7231C28.7486 10.4141 30.1876 7.87731 32.0159 5.56948ZM26.5993 16.8836H37.428C38.6018 21.7471 38.2624 26.8921 37.2261 32.2222H33.8751V25.3732C33.8751 24.3381 33.036 23.499 32.0009 23.499C30.9658 23.499 30.1267 24.3381 30.1267 25.3732V32.2222H27.0843C25.8066 26.7109 25.4446 22.0692 26.5993 16.8836ZM26.2587 35.9708H38.0688L41.0132 38.2667C41.9025 38.9603 42.8502 39.5747 43.8407 40.1087C43.8955 40.1419 43.952 40.1721 44.0103 40.1996C44.0518 40.2215 44.0925 40.2445 44.1342 40.266C41.0959 42.117 38.942 45.2817 38.4687 48.9653C37.098 49.5112 36.0359 50.6695 35.6205 52.1002H28.1514C27.7292 50.6764 26.6657 49.5254 25.2965 48.9852C24.8306 45.3739 22.7482 42.2636 19.8025 40.4C20.9571 39.8325 22.0586 39.1547 23.0883 38.3741L26.2587 35.9708ZM40.8156 33.3592C41.1791 31.721 41.4243 30.1204 41.5884 28.6809L42.9332 29.9719V35.0105L40.8156 33.3592ZM21.0425 35.2213V29.8282L22.5562 28.4478C22.7836 30.0578 23.1029 31.7183 23.5032 33.3557L21.0425 35.2213ZM3.74875 12.9682H23.8053C22.6533 16.4197 22.0922 20.0581 22.1581 23.7375L17.9053 27.6159C17.5158 27.9711 17.2939 28.4738 17.2939 29.0008V37.4256C16.3939 37.8062 15.4605 38.108 14.5052 38.3236C13.8351 37.3471 12.8319 36.6385 11.6731 36.3377C10.2942 33.1121 7.20343 30.6459 3.74875 30.0665V12.9682ZM3.74875 52.1004V33.915C5.98507 34.5564 7.8268 36.3032 8.51606 38.5946C8.76086 39.408 9.52301 39.9558 10.3712 39.9278C12.279 40.1159 11.0054 42.103 13.422 42.2993C17.9573 42.3004 21.6465 45.9904 21.6465 50.5258C21.6465 51.1868 21.9896 51.7666 22.5064 52.1003H3.74875V52.1004ZM44.7024 59.4395H19.2979V55.849H44.7024V59.4395ZM60.2516 52.1004H41.2175C41.7576 51.7715 42.1194 51.1789 42.1194 50.5004C42.1194 45.9642 45.8099 42.2738 50.346 42.2738C51.1277 42.2814 51.9796 41.7057 52.1656 40.8489C52.315 40.2441 52.9059 39.8422 53.5386 39.9413C54.4497 40.0832 55.3283 39.5424 55.6117 38.6652C56.2845 36.5805 58.0483 35.0339 60.2517 34.466V52.1004H60.2516ZM60.2516 30.637C56.8634 31.2054 53.9972 33.2826 52.5569 36.24C51.2299 36.4515 50.0626 37.1888 49.3009 38.2594C48.4031 38.0259 47.5268 37.7155 46.6818 37.3353V29.173C46.6818 28.6626 46.4736 28.1743 46.1054 27.8208L41.9135 23.7967C42.001 19.8449 41.2702 16.0353 40.2101 12.9679H60.2513V30.637H60.2516Z"
          fill="#00A0FF"/>
    <path d="M30.7541 45.496C30.0222 46.2279 30.0222 47.4146 30.7541 48.1466C31.4861 48.8785 32.6728 48.8785 33.4048 48.1466C35.093 46.3188 32.581 43.8082 30.7541 45.496Z"
          fill="white"/>
</svg>
