<svg width="64" height="56" viewBox="0 0 64 56" fill="none" xmlns="http://www.w3.org/2000/svg">
    <path d="M63.4423 13.8095L50.3407 0.554265C49.7307 -0.0628648 48.7895 -0.17776 48.055 0.275673L37.9394 6.51909C36.0855 7.37241 34.4059 8.54007 32.9462 9.99092L32.1563 10.776L15.8717 0.603323C15.1326 0.141692 14.1811 0.258125 13.5691 0.885246L0.54936 14.2231C-0.032789 14.8193 -0.167198 15.7349 0.2179 16.4803L7.52439 30.6255L6.73907 31.43C4.44098 33.7842 4.44098 37.615 6.73907 39.9693C7.83672 41.0937 9.26259 41.6795 10.7036 41.73C10.7528 43.206 11.3249 44.6672 12.4223 45.7914C13.5198 46.9157 14.946 47.5017 16.387 47.5522C16.565 52.7913 22.7793 55.3436 26.4412 51.6136L27.1495 50.888L30.4431 54.2621C31.5363 55.3821 32.9899 55.999 34.5361 55.999C37.5868 56.0592 40.2505 53.3823 40.3158 50.3205C41.715 50.2601 43.0974 49.6845 44.1634 48.5924C45.1719 47.5593 45.7612 46.2118 45.8467 44.7658C47.1782 44.7063 48.4925 44.1575 49.5069 43.1182C51.2841 41.3595 51.6353 38.3591 50.3439 36.2181L54.0864 32.5923C55.8763 30.8581 57.2617 28.7993 58.2057 26.4708L63.7679 16.1015C64.172 15.3491 64.0389 14.4132 63.4423 13.8095ZM9.39137 34.1471L14.4798 28.9343C15.2776 28.0826 16.713 28.0826 17.5108 28.9344L17.9877 29.423C18.5602 30.0096 18.5602 30.9641 17.9877 31.5508L17.5118 32.0383C17.5114 32.0387 17.5111 32.039 17.5107 32.0394L12.4223 37.2522C11.6246 38.1039 10.1891 38.104 9.39137 37.2522C8.55578 36.3961 8.55566 35.0033 9.39137 34.1471ZM15.0746 39.9694L20.1636 34.7561C20.9993 33.9006 22.3587 33.9008 23.194 34.7566L23.671 35.2454C24.2408 35.8054 24.2407 36.813 23.671 37.373L18.1056 43.0745C17.3079 43.9262 15.8722 43.9262 15.0746 43.0745C14.239 42.2184 14.239 40.8254 15.0746 39.9694ZM20.758 48.8968C19.9224 48.0406 19.9224 46.6478 20.758 45.7916L25.8465 40.5788C26.6442 39.7272 28.0797 39.7272 28.8774 40.5788C29.7129 41.435 29.7129 42.8278 28.8774 43.6839L23.7889 48.8968C22.9532 49.7529 21.5936 49.7527 20.758 48.8968ZM46.8547 40.4013C46.165 41.1077 45.0432 41.1077 44.3536 40.4013C44.3327 40.3799 44.3102 40.3613 44.2886 40.3412C43.5839 39.477 42.2884 39.4018 41.5111 40.2066C40.7787 40.9569 40.7788 42.1734 41.5111 42.9237C42.3014 43.7007 42.3014 45.0984 41.5111 45.8754C40.7168 46.6893 39.4242 46.6893 38.6297 45.8754C37.8974 45.1251 36.7099 45.1251 35.9774 45.8754C35.9772 45.8757 35.9771 45.8759 35.9768 45.8762C35.9768 45.8762 35.9768 45.8762 35.9767 45.8763C35.2444 46.6267 35.2442 47.8431 35.9767 48.5934C36.771 49.4073 36.771 50.7314 35.9767 51.5451C35.2182 52.3549 33.8538 52.3549 33.0953 51.5451L29.8017 48.171L31.5297 46.4008C35.0779 42.795 32.7832 36.4923 27.8476 36.1175C27.8013 34.7611 27.2649 33.4925 26.3235 32.528L25.8465 32.0392C24.8202 30.9878 23.5064 30.4074 22.162 30.2951C22.1168 28.9904 21.6102 27.6994 20.6401 26.7056L20.1633 26.217C17.8649 23.8626 14.1258 23.8628 11.8277 26.217L10.2997 27.7824L4.18104 15.9369L15.1784 4.67077L29.3759 13.5395L24.8596 18.0282C22.3439 20.4181 22.3087 24.8111 24.7856 27.243C27.1339 29.7502 31.3595 29.7502 33.7076 27.243L35.1097 25.8068L46.4431 37.4172C46.4467 37.4211 46.4505 37.4248 46.4542 37.4286L46.8548 37.839C47.5441 38.5455 47.5441 39.695 46.8547 40.4013ZM54.8681 24.7148C54.8335 24.7794 54.8025 24.846 54.7754 24.9141C54.0339 26.7752 52.935 28.4193 51.5093 29.8006L47.8106 33.3838L36.4358 21.7311C35.7035 20.9808 34.5158 20.9808 33.7835 21.7311L31.0553 24.526C30.1032 25.5425 28.39 25.5425 27.4377 24.526C26.4329 23.5385 26.4476 21.7589 27.4696 20.788L35.5582 12.7487C36.7269 11.5872 38.0748 10.657 39.5647 9.98401C39.6374 9.95122 39.708 9.91369 39.7759 9.87167L48.7421 4.33774L59.7983 15.5237L54.8681 24.7148Z"
          fill="#00A0FF"/>
</svg>
