<svg width="64" height="64" viewBox="0 0 64 64" fill="none" xmlns="http://www.w3.org/2000/svg">
    <path d="M21.9849 27.3414H22.6554C23.5107 31.1158 26.886 33.9431 30.9107 33.9431C31.9454 33.9431 32.7843 33.1031 32.7843 32.0669C32.7843 31.0308 31.9454 30.1908 30.9107 30.1908C28.9739 30.1908 27.3067 29.0162 26.5802 27.3414H30.9107C33.3967 27.2422 33.3948 23.6872 30.9107 23.589H26.5802C27.3067 21.9142 28.9739 20.7396 30.9107 20.7396C31.9454 20.7396 32.7843 19.8996 32.7843 18.8635C32.7843 17.8273 31.9454 16.9873 30.9107 16.9873C26.8861 16.9873 23.5107 19.8146 22.6554 23.589H21.9849C19.4989 23.6882 19.5008 27.2432 21.9849 27.3414Z"
          fill="white"/>
    <path fill-rule="evenodd" clip-rule="evenodd"
          d="M3.74738 60.2477H62.1362C64.641 60.3564 64.6016 63.9082 62.1362 64H1.87369C0.838913 64 0 63.16 0 62.1238V1.86647C0.112421 -0.650469 3.66156 -0.593684 3.74738 1.86647V52.2827H26.0454C41.8093 52.2827 54.8365 39.9368 55.7032 24.1761L56.1887 15.3475L55.5394 15.928C53.6213 17.5115 51.2552 14.8608 53.0437 13.129L57.0519 9.54525C57.8256 8.80354 59.0761 8.97652 59.7054 9.68796L63.4791 13.9198C64.1684 14.6928 64.1014 15.8788 63.3295 16.569C62.9722 16.8884 62.5264 17.0457 62.0822 17.0457C61.5671 17.0458 61.0542 16.8342 60.6841 16.4191L59.9296 15.573L59.4451 24.3824C58.469 42.1314 43.7981 56.0349 26.0455 56.0349H3.74738V60.2477ZM48.3549 25.4193C48.3549 36.6812 39.2048 45.8433 27.9579 45.8433C16.711 45.8433 7.56091 36.6812 7.56091 25.4195C8.67726 -1.66788 47.2344 -1.67577 48.3549 25.4193ZM26.0842 9.7576V8.85403C18.3978 9.71995 12.2792 15.8466 11.4143 23.5433H12.3167C14.8008 23.6415 14.8027 27.1964 12.3167 27.2956H11.4143C12.2792 34.9923 18.3978 41.1189 26.0842 41.9849V41.0813C26.1823 38.5939 29.7325 38.592 29.8316 41.0813V41.9849C37.5181 41.1189 43.6366 34.9922 44.5015 27.2956H43.5991C41.1149 27.1974 41.1131 23.6425 43.5991 23.5433H44.5015C43.6366 15.8466 37.518 9.72007 29.8316 8.85403V9.7576C29.7335 12.245 26.1833 12.2469 26.0842 9.7576Z"
          fill="#00A0FF"/>
</svg>
