<svg width="64" height="64" viewBox="0 0 64 64" fill="none" xmlns="http://www.w3.org/2000/svg">
    <path d="M32.5949 12.4219H29.9874C27.4993 12.5209 27.5012 16.07 29.9874 16.1681H30.7196V24.1758C30.8187 26.661 34.372 26.6591 34.4701 24.1758V14.295C34.4701 13.2604 33.6305 12.4219 32.5949 12.4219Z"
          fill="white"/>
    <path d="M62.1248 42.7501H43.9173V35.4911L49.8973 33.3996C50.7727 33.0936 51.2925 32.1942 51.1203 31.284L49.8977 24.822L53.2592 19.1675C53.7327 18.3711 53.5522 17.3485 52.8345 16.7617L47.7395 12.5966L46.6758 6.10654C46.5265 5.19209 45.7274 4.52427 44.8022 4.53626L38.2048 4.61693L33.2086 0.43718C32.5118 -0.145727 31.4973 -0.145727 30.8003 0.43718L25.8042 4.61693L19.2067 4.53626C18.2815 4.52427 17.4824 5.19222 17.3332 6.10654L16.2694 12.5966L11.1744 16.7617C10.4567 17.3483 10.2761 18.3711 10.7497 19.1675L14.1112 24.822L12.8887 31.284C12.7165 32.1942 13.2362 33.0936 14.1116 33.3996L20.0838 35.4884V48.3289H1.87526C0.839617 48.3289 0 49.1676 0 50.202V62.1269C0 63.1614 0.839617 64 1.87526 64H62.1248C63.1604 64 64 63.1614 64 62.1269V44.6232C64 43.5886 63.1604 42.7501 62.1248 42.7501ZM20.083 60.2538H3.75052V52.0751H20.0832V60.2538H20.083ZM40.1662 60.2538H23.8341V32.9355H40.1667L40.1662 60.2538ZM42.042 29.1893H21.9588C20.9232 29.1893 20.0835 30.0279 20.0835 31.0624V31.5192L16.8732 30.3963L17.928 24.822C18.0128 24.3738 17.9309 23.91 17.6977 23.5179L14.7981 18.6402L19.1931 15.0472C19.5465 14.7584 19.7823 14.3505 19.856 13.9004L20.7736 8.30193L26.4529 8.37148C26.8983 8.3786 27.3364 8.22201 27.68 7.93443L32.0045 4.31648L36.3289 7.93443C36.6726 8.22201 37.1112 8.38035 37.556 8.37148L43.2352 8.30193L44.1528 13.9004C44.2265 14.3504 44.4623 14.7582 44.8158 15.0472L49.2107 18.6402L46.3111 23.5179C46.0779 23.9102 45.996 24.3738 46.0808 24.822L47.1356 30.3963L43.9174 31.5219V31.0624C43.9173 30.0279 43.0776 29.1893 42.042 29.1893ZM60.2495 60.2538H43.9173V46.4963H60.2495V60.2538Z"
          fill="#00A0FF"/>
</svg>
