<svg width="34" height="34" viewBox="0 0 34 34" fill="none" xmlns="http://www.w3.org/2000/svg">
<path d="M17 0C7.6262 0 0 7.6262 0 17C0 26.3738 7.6262 34 17 34C26.3738 34 34 26.3738 34 17C34 7.6262 26.3738 0 17 0ZM17 29.1429C10.3044 29.1429 4.85714 23.6956 4.85714 17C4.85714 10.3044 10.3044 4.85714 17 4.85714C20.7092 4.85714 24.0346 6.52934 26.2638 9.15887L17 18.4227L12.1429 13.5655L8.70837 17L17 25.2916L28.6655 13.6261C28.9759 14.6978 29.1429 15.8297 29.1429 17C29.1429 23.6956 23.6956 29.1429 17 29.1429Z" fill="#00A0FF"/>
</svg>
